<svg width="24" height="24" viewBox="0 0 24 24" fill="none" xmlns="http://www.w3.org/2000/svg">
<g clip-path="url(#clip0_25_290)">
<path d="M15.4375 17.2208L19.0791 13.5792L20.0459 14.546L15.4375 19.1544L12.8916 16.6085L13.8584 15.6417L15.4375 17.2208ZM23 9.25005V23.0001H9.24999V14.6104C8.81314 14.7035 8.35481 14.7501 7.87499 14.7501C6.92251 14.7501 6.03091 14.571 5.20018 14.2129C4.36945 13.8549 3.63899 13.3643 3.00878 12.7413C2.37857 12.1182 1.88801 11.3913 1.5371 10.5606C1.18619 9.72987 1.00715 8.83469 0.999988 7.87505C0.999988 6.92258 1.17902 6.03098 1.5371 5.20025C1.89517 4.36952 2.38573 3.63905 3.00878 3.00884C3.63182 2.37864 4.35871 1.88808 5.18944 1.53716C6.02017 1.18625 6.91535 1.00722 7.87499 1.00005C8.82746 1.00005 9.71906 1.17909 10.5498 1.53716C11.3805 1.89524 12.111 2.3858 12.7412 3.00884C13.3714 3.63189 13.862 4.35878 14.2129 5.18951C14.5638 6.02024 14.7428 6.91542 14.75 7.87505C14.75 8.35487 14.7034 8.81321 14.6103 9.25005H23ZM2.37499 7.87505C2.37499 8.63417 2.51822 9.34673 2.80468 10.0127C3.09113 10.6788 3.48501 11.2588 3.98632 11.753C4.48762 12.2471 5.07128 12.641 5.73729 12.9346C6.40331 13.2282 7.11587 13.3751 7.87499 13.3751C8.6341 13.3751 9.34667 13.2318 10.0127 12.9454C10.6787 12.6589 11.2588 12.265 11.7529 11.7637C12.2471 11.2624 12.6409 10.6788 12.9346 10.0127C13.2282 9.34673 13.375 8.63417 13.375 7.87505C13.375 7.11594 13.2318 6.40337 12.9453 5.73736C12.6588 5.07134 12.265 4.49127 11.7637 3.99712C11.2624 3.50298 10.6787 3.1091 10.0127 2.81548C9.34667 2.52186 8.6341 2.37505 7.87499 2.37505C7.11587 2.37505 6.40331 2.51828 5.73729 2.80474C5.07128 3.0912 4.4912 3.48508 3.99706 3.98638C3.50292 4.48768 3.10904 5.07134 2.81542 5.73736C2.5218 6.40337 2.37499 7.11594 2.37499 7.87505ZM21.625 10.6251H14.1807C13.8154 11.4343 13.3356 12.1361 12.7412 12.7305C12.1468 13.3249 11.4414 13.8083 10.625 14.1807V21.6251H21.625V10.6251ZM11.7959 6.29595L7.18749 10.9044L4.64159 8.35845L5.60839 7.39166L7.18749 8.97076L10.8291 5.32916L11.7959 6.29595Z" fill="white"/>
<path fill-rule="evenodd" clip-rule="evenodd" d="M7.8735 0.80006L7.87499 0.800049C8.85322 0.800054 9.77191 0.984084 10.629 1.3535C11.4821 1.72123 12.2335 2.22568 12.8818 2.86662C13.531 3.5084 14.0362 4.25727 14.3971 5.11168C14.7589 5.9681 14.9426 6.8894 14.95 7.87356L14.95 7.87505C14.95 8.28064 14.9176 8.67238 14.8525 9.05005H23.2V23.2001H9.04999V14.8526C8.67231 14.9177 8.28057 14.9501 7.87499 14.9501C6.89675 14.9501 5.97806 14.766 5.12102 14.3966C4.26789 14.0289 3.51647 13.5244 2.86817 12.8835C2.21901 12.2417 1.71377 11.4928 1.35286 10.6384C0.991098 9.78201 0.807338 8.86071 0.799993 7.87655L0.799988 7.87505C0.799988 6.89682 0.984017 5.97813 1.35343 5.12108C1.72116 4.26796 2.22562 3.51653 2.86655 2.86823C3.50833 2.21907 4.25721 1.71384 5.11162 1.35293C5.96803 0.991165 6.88933 0.807404 7.8735 0.80006ZM10.4706 1.72083C9.66643 1.37419 8.80217 1.20015 7.87573 1.20005C6.94091 1.20712 6.07209 1.38143 5.26727 1.7214C4.46022 2.06231 3.75532 2.5382 3.151 3.14945C2.54585 3.76157 2.06918 4.47109 1.72076 5.27942C1.37412 6.08361 1.20008 6.94788 1.19999 7.87431C1.20705 8.80913 1.38136 9.67795 1.72133 10.4828C2.06224 11.2898 2.53813 11.9947 3.14939 12.599C3.7615 13.2042 4.47102 13.6809 5.27935 14.0293C6.08376 14.376 6.94827 14.5501 7.87499 14.5501C8.34182 14.5501 8.78613 14.5048 9.2083 14.4148L9.44999 14.3633V22.8001H22.8V9.45005H14.3632L14.4147 9.20837C14.5047 8.78641 14.5499 8.34235 14.55 7.87578C14.5429 6.94096 14.3686 6.07215 14.0286 5.26733C13.6877 4.46028 13.2118 3.75538 12.6006 3.15107C11.9885 2.54591 11.279 2.06925 10.4706 1.72083ZM5.65827 2.62102C6.35042 2.32332 7.09 2.17505 7.87499 2.17505C8.66067 2.17505 9.40083 2.32717 10.0934 2.63248C10.7808 2.93555 11.3849 3.34294 11.9041 3.85469C12.4243 4.36752 12.8327 4.96931 13.129 5.65834C13.4267 6.35048 13.575 7.09007 13.575 7.87505C13.575 8.66073 13.4229 9.4009 13.1176 10.0934C12.8145 10.7809 12.4071 11.385 11.8954 11.9041C11.3825 12.4244 10.7807 12.8327 10.0917 13.1291C9.39956 13.4268 8.65997 13.5751 7.87499 13.5751C7.08931 13.5751 6.34914 13.4229 5.65661 13.1176C4.96916 12.8146 4.36509 12.4072 3.84592 11.8954C3.32566 11.3826 2.9173 10.7808 2.62095 10.0918C2.32325 9.39962 2.17499 8.66004 2.17499 7.87505C2.17499 7.08938 2.3271 6.34921 2.63241 5.65668C2.93548 4.96923 3.34287 4.36515 3.85462 3.84598C4.36745 3.32572 4.96924 2.91737 5.65827 2.62102ZM7.87499 2.57505C7.14174 2.57505 6.4562 2.71325 5.81631 2.98847C5.17331 3.26503 4.61495 3.64444 4.13949 4.12678C3.66297 4.61022 3.28259 5.17346 2.99842 5.81804C2.71649 6.45754 2.57499 7.1425 2.57499 7.87505C2.57499 8.6083 2.71318 9.29384 2.9884 9.93373C3.26496 10.5767 3.64437 11.1351 4.12672 11.6105C4.61015 12.0871 5.17339 12.4675 5.81797 12.7516C6.45747 13.0336 7.14244 13.1751 7.87499 13.1751C8.60823 13.1751 9.29378 13.0369 9.93366 12.7616C10.5767 12.4851 11.135 12.1057 11.6105 11.6233C12.087 11.1399 12.4674 10.5767 12.7516 9.93207C13.0335 9.29257 13.175 8.60761 13.175 7.87505C13.175 7.14181 13.0368 6.45626 12.7616 5.81638C12.485 5.17338 12.1056 4.61501 11.6233 4.13956C11.1398 3.66303 10.5766 3.28266 9.932 2.99849C9.2925 2.71656 8.60754 2.57505 7.87499 2.57505ZM10.8291 5.04631L12.0787 6.29595L7.18749 11.1872L4.35875 8.35845L5.60839 7.10881L7.18749 8.68791L10.8291 5.04631ZM10.8291 5.612L7.18749 9.2536L5.60839 7.6745L4.92443 8.35845L7.18749 10.6215L11.513 6.29595L10.8291 5.612ZM14.0515 10.4251H21.825V21.8251H10.425V14.0521L10.542 13.9988C11.3381 13.6356 12.0234 13.1655 12.5998 12.5891C13.1761 12.0127 13.6425 11.3313 13.9984 10.5428L14.0515 10.4251ZM14.3087 10.8251C13.9411 11.6058 13.4659 12.2886 12.8826 12.8719C12.2989 13.4556 11.6125 13.9342 10.825 14.3082V21.4251H21.425V10.8251H14.3087ZM19.0791 13.2963L20.3287 14.546L15.4375 19.4372L12.6087 16.6085L13.8584 15.3588L15.4375 16.9379L19.0791 13.2963ZM19.0791 13.862L15.4375 17.5036L13.8584 15.9245L13.1744 16.6085L15.4375 18.8715L19.763 14.546L19.0791 13.862Z" fill="white"/>
</g>
<defs>
<clipPath id="clip0_25_290">
<rect width="24" height="24" fill="white"/>
</clipPath>
</defs>
</svg>
