<svg width="24" height="24" viewBox="0 0 24 24" fill="none" xmlns="http://www.w3.org/2000/svg">
<path d="M16.0645 8C14.7461 8 13.6948 8.68433 13.0452 9.25867L13.0223 9.279L12.6523 9.69467L13.469 11.0817L14.0735 10.4553C14.7061 9.90333 15.4123 9.6 16.0645 9.6C17.3806 9.6 18.4516 10.6767 18.4516 12C18.4516 13.3233 17.3806 14.4 16.0645 14.4C14.0645 14.4 12.7052 11.6683 12.6916 11.6407C12.6129 11.4763 10.889 8 7.93548 8C5.76548 8 4 9.79433 4 12C4 14.2057 5.76548 16 7.93548 16C8.99839 16 10.0445 15.563 10.961 14.736L10.9806 14.718L11.3477 14.3053L10.5306 12.9183L9.92323 13.5477C9.29032 14.1133 8.62129 14.4 7.93548 14.4C6.61935 14.4 5.54839 13.3233 5.54839 12C5.54839 10.6767 6.61935 9.6 7.93548 9.6C9.93548 9.6 11.2948 12.3317 11.3084 12.3593C11.3871 12.5237 13.111 16 16.0645 16C18.2345 16 20 14.2057 20 12C20 9.79433 18.2345 8 16.0645 8Z" fill="white"/>
</svg>
