<svg width="24" height="24" viewBox="0 0 24 24" fill="none" xmlns="http://www.w3.org/2000/svg">
<path d="M4 2V5.413C4.114 5.47 4.25 5.535 4.406 5.605C5.016 5.875 5.953 6.225 7.216 6.505C8.482 6.786 10.076 7 12 7C13.925 7 15.52 6.786 16.783 6.505C18.047 6.225 18.983 5.875 19.593 5.605C19.751 5.535 19.886 5.47 20 5.413V2H22V15H23V17H22V22H20V17H4V22H2V17H1V15H2V2H4ZM4 15H6V8.267C5.32012 8.08848 4.65213 7.86737 4 7.605V15ZM8 8.69V15H11V8.982C9.99495 8.94703 8.99303 8.84984 8 8.691V8.69ZM13 8.982V15H16V8.69C15.107 8.835 14.107 8.941 13 8.982ZM18 8.267V15H20V7.605C19.469 7.82 18.802 8.054 18 8.267ZM20.446 5.167C20.447 5.16632 20.448 5.16565 20.449 5.165L20.447 5.167H20.446Z" fill="white"/>
</svg>
