<svg width="24" height="24" viewBox="0 0 24 24" fill="none" xmlns="http://www.w3.org/2000/svg">
<path fill-rule="evenodd" clip-rule="evenodd" d="M22.775 8C22.9245 8.65616 23 9.32702 23 10H14V1C16.0394 0.999992 18.0183 1.6926 19.6125 2.96437C21.2068 4.23613 22.3218 6.01163 22.775 8ZM20.708 8C20.3759 6.88601 19.7716 5.87227 18.9497 5.05031C18.1277 4.22835 17.114 3.62406 16 3.292V8H20.708Z" fill="white"/>
<path fill-rule="evenodd" clip-rule="evenodd" d="M1 14C0.999995 12.6482 1.30452 11.3137 1.89097 10.0957C2.47742 8.87767 3.33072 7.80741 4.3875 6.96439C5.44428 6.12136 6.6774 5.52723 7.99529 5.22611C9.31317 4.92499 10.682 4.92463 12 5.22504V12H18.775C19.0565 13.2352 19.0741 14.5158 18.8266 15.7582C18.5791 17.0006 18.0721 18.1767 17.3388 19.2097C16.6055 20.2426 15.6624 21.1092 14.5712 21.7526C13.4799 22.396 12.2652 22.8018 11.0063 22.9434C9.74746 23.0851 8.47289 22.9594 7.26596 22.5746C6.05903 22.1897 4.94694 21.5544 4.00242 20.7102C3.05791 19.8661 2.30224 18.832 1.78486 17.6757C1.26747 16.5193 1.00002 15.2668 1 14ZM16.803 14H10V7.19604C8.65425 7.19584 7.33867 7.59472 6.21963 8.34223C5.10058 9.08974 4.22834 10.1523 3.71321 11.3956C3.19808 12.6388 3.06319 14.0069 3.32561 15.3268C3.58804 16.6467 4.23598 17.8592 5.18749 18.8108C6.13901 19.7625 7.35136 20.4106 8.67124 20.6732C9.99111 20.9358 11.3592 20.8012 12.6025 20.2862C13.8459 19.7713 14.9086 18.8992 15.6562 17.7802C16.4039 16.6613 16.803 15.3458 16.803 14Z" fill="white"/>
</svg>
