<svg width="24" height="24" viewBox="0 0 24 24" fill="none" xmlns="http://www.w3.org/2000/svg">
<path d="M21.0844 6.48047L16.5235 9.29063L12.15 3.45703C12.1324 3.43355 12.1096 3.4145 12.0834 3.40137C12.0571 3.38824 12.0282 3.38141 11.9988 3.38141C11.9695 3.38141 11.9406 3.38824 11.9143 3.40137C11.8881 3.4145 11.8653 3.43355 11.8477 3.45703L7.47658 9.29063L2.9133 6.48047C2.77971 6.39844 2.60627 6.5086 2.62737 6.66563L4.41799 20.2734C4.44377 20.4586 4.60315 20.6016 4.79299 20.6016H19.2094C19.3969 20.6016 19.5586 20.4609 19.5821 20.2734L21.3727 6.66563C21.3914 6.5086 21.2203 6.39844 21.0844 6.48047ZM18.1313 18.9984H5.86643L4.60549 9.40313L7.88205 11.4211L12 5.92735L16.118 11.4211L19.3946 9.40313L18.1313 18.9984ZM12 11.9297C10.5446 11.9297 9.36096 13.1133 9.36096 14.5688C9.36096 16.0242 10.5446 17.2078 12 17.2078C13.4555 17.2078 14.6391 16.0242 14.6391 14.5688C14.6391 13.1133 13.4555 11.9297 12 11.9297ZM12 15.7008C11.3766 15.7008 10.8703 15.1945 10.8703 14.5688C10.8703 13.9453 11.3766 13.4367 12 13.4367C12.6235 13.4367 13.1297 13.943 13.1297 14.5688C13.1297 15.1922 12.6235 15.7008 12 15.7008Z" fill="white"/>
</svg>
