<svg width="24" height="24" viewBox="0 0 24 24" fill="none" xmlns="http://www.w3.org/2000/svg">
<path fill-rule="evenodd" clip-rule="evenodd" d="M4.00001 20L8.23281 19.0592C9.3917 19.6788 10.6859 20.002 12 20C16.4184 20 20 16.4184 20 12C20 7.5816 16.4184 4 12 4C7.58161 4 4.00001 7.5816 4.00001 12C3.99803 13.3141 4.32123 14.6083 4.94081 15.7672L4.00001 20ZM8.98721 17.6488L8.46481 17.3688L6.10721 17.8928L6.63121 15.5352L6.35201 15.0128C5.86001 14.0936 5.60001 13.068 5.60001 12C5.60001 10.7342 5.97536 9.49682 6.6786 8.44435C7.38184 7.39187 8.38139 6.57157 9.55083 6.08717C10.7203 5.60277 12.0071 5.47603 13.2486 5.72297C14.4901 5.96992 15.6304 6.57946 16.5255 7.47451C17.4205 8.36957 18.0301 9.50994 18.277 10.7514C18.524 11.9929 18.3972 13.2797 17.9128 14.4492C17.4284 15.6186 16.6081 16.6182 15.5557 17.3214C14.5032 18.0246 13.2658 18.4 12 18.4C10.9491 18.4022 9.91405 18.1441 8.98721 17.6488ZM12.33 10.3288C12.8161 9.89039 13.6041 9.89039 14.0901 10.3288C14.6366 10.8221 14.6366 11.6207 14.0901 12.114L12.0001 14L9.91008 12.114C9.36331 11.6207 9.36331 10.8224 9.91008 10.3288C10.3961 9.89039 11.1839 9.89039 11.6699 10.3288L12.0001 10.6266L12.33 10.3288Z" fill="white"/>
</svg>
