<svg width="24" height="24" viewBox="0 0 24 24" fill="none" xmlns="http://www.w3.org/2000/svg">
<path d="M16.293 2.29303C16.4805 2.10556 16.7348 2.00024 17 2.00024C17.2652 2.00024 17.5195 2.10556 17.707 2.29303L21.707 6.29303C21.8945 6.48056 21.9998 6.73487 21.9998 7.00003C21.9998 7.26519 21.8945 7.5195 21.707 7.70703L8.707 20.707C8.51951 20.8946 8.26519 21 8 21H4C3.73478 21 3.48043 20.8947 3.29289 20.7071C3.10536 20.5196 3 20.2652 3 20V16C3.00006 15.7348 3.10545 15.4805 3.293 15.293L13.293 5.29303L16.293 2.29303ZM14 7.41403L5 16.414V19H7.586L16.586 10L14 7.41403ZM18 8.58603L19.586 7.00003L17 4.41403L15.414 6.00003L18 8.58603Z" fill="white"/>
</svg>
