<svg width="24" height="24" viewBox="0 0 24 24" fill="none" xmlns="http://www.w3.org/2000/svg">
<path fill-rule="evenodd" clip-rule="evenodd" d="M1.00006 4.50012C1.00006 3.94784 1.44778 3.50012 2.00006 3.50012H22.0001C22.5523 3.50012 23.0001 3.94784 23.0001 4.50012V19.5001C23.0001 20.0524 22.5523 20.5001 22.0001 20.5001H2.00006C1.44778 20.5001 1.00006 20.0524 1.00006 19.5001V4.50012ZM3.00006 5.50012V18.5001H21.0001V5.50012H3.00006Z" fill="white"/>
<path fill-rule="evenodd" clip-rule="evenodd" d="M1.2 3.90006C1.53137 3.45823 2.15817 3.36869 2.6 3.70006L12 10.7501L21.4 3.70006C21.8418 3.36869 22.4686 3.45823 22.8 3.90006C23.1314 4.34189 23.0418 4.96869 22.6 5.30006L12.6 12.8001C12.2444 13.0667 11.7556 13.0667 11.4 12.8001L1.4 5.30006C0.95817 4.96869 0.868627 4.34189 1.2 3.90006Z" fill="white"/>
<path fill-rule="evenodd" clip-rule="evenodd" d="M1.00006 4.50012C1.00006 3.94784 1.44778 3.50012 2.00006 3.50012H22.0001C22.5523 3.50012 23.0001 3.94784 23.0001 4.50012V12.0001C23.0001 12.5524 22.5523 13.0001 22.0001 13.0001C21.4478 13.0001 21.0001 12.5524 21.0001 12.0001V5.50012H3.00006V12.0001C3.00006 12.5524 2.55235 13.0001 2.00006 13.0001C1.44778 13.0001 1.00006 12.5524 1.00006 12.0001V4.50012Z" fill="white"/>
</svg>
