<svg width="24" height="24" viewBox="0 0 24 24" fill="none" xmlns="http://www.w3.org/2000/svg">
<path d="M23.5 13.5L20.414 16.586L19 18L14.5 13.5L15.914 12.086L18 14.172V12C18 8.692 15.308 6 12 6V4C14.1217 4 16.1566 4.84285 17.6569 6.34315C19.1571 7.84344 20 9.87827 20 12V14.172L22.086 12.086L23.5 13.5ZM6 12V9.828L8.086 11.914L9.5 10.5L5 6L3.586 7.414L0.5 10.5L1.914 11.914L4 9.828V12C4 14.1217 4.84285 16.1566 6.34315 17.6569C7.84344 19.1571 9.87827 20 12 20V18C8.692 18 6 15.308 6 12Z" fill="white"/>
</svg>
