<svg width="24" height="24" viewBox="0 0 24 24" fill="none" xmlns="http://www.w3.org/2000/svg">
<path fill-rule="evenodd" clip-rule="evenodd" d="M4.18983 7.26184C5.93969 5.57661 8.51743 4 12 4C15.483 4 18.061 5.57657 19.8109 7.26184C21.5483 8.93504 22.5103 10.7505 22.8098 11.3716C22.9051 11.5673 22.9547 11.7822 22.9547 12C22.9547 12.218 22.905 12.4332 22.8094 12.6291C22.5097 13.2496 21.5478 15.065 19.8106 16.7381C18.0608 18.4234 15.4831 20 12 20C8.51698 20 5.93898 18.4234 4.18908 16.7382C2.4514 15.0647 1.48936 13.2488 1.1901 12.6281C1.09486 12.4324 1.04535 12.2176 1.04535 12C1.04535 11.782 1.09504 11.5668 1.19061 11.3709C1.49036 10.7503 2.45254 8.93498 4.18983 7.26184ZM3.11254 12.0002C3.45821 12.6642 4.26414 14.0338 5.57645 15.2976C7.06905 16.7351 9.17505 18 12 18C14.825 18 16.9307 16.7351 18.4232 15.2976C19.7353 14.0339 20.5413 12.6644 20.8875 11.9998C20.5418 11.3358 19.7359 9.96626 18.4236 8.70241C16.931 7.26493 14.825 6 12 6C9.1756 6 7.06984 7.26488 5.5772 8.70241C4.26495 9.96619 3.45879 11.3357 3.11254 12.0002Z" fill="white"/>
<path fill-rule="evenodd" clip-rule="evenodd" d="M12 10C10.8954 10 10 10.8954 10 12C10 13.1046 10.8954 14 12 14C13.1046 14 14 13.1046 14 12C14 10.8954 13.1046 10 12 10ZM8 12C8 9.79086 9.79086 8 12 8C14.2091 8 16 9.79086 16 12C16 14.2091 14.2091 16 12 16C9.79086 16 8 14.2091 8 12Z" fill="white"/>
</svg>
