<svg width="24" height="24" viewBox="0 0 24 24" fill="none" xmlns="http://www.w3.org/2000/svg">
<path fill-rule="evenodd" clip-rule="evenodd" d="M5.21252 2.50003C4.93073 2.50003 4.15002 2.50003 4.15002 2.54897V3.56253V11.5H2.96252H1.90002V12.5625V13.625H2.96252H7.46252H8.52502V12.5625C8.52502 12.2807 8.5 11.5 8.5 11.5H7.46252H6.27502V3.56253V2.49994L5.21252 2.50003ZM11.9625 2.50003H10.9V3.56253V7.00003H9.71252H8.65002V8.06253V9.12503H9.71252H14.2125C14.4943 9.12503 15.275 9.17856 15.275 9.17856V8.06253V7.00003H14.2125H13.025V3.56253C13.025 3.28074 13 2.50003 13 2.50003L11.9625 2.50003ZM18.7125 2.50003L17.65 2.50016V3.56253V14.5H16.4625H15.4V15.5625V16.625H16.4625H20.9625H22.025V15.5625C22.025 15.2807 22 14.4999 22 14.4999L20.9625 14.5H19.775V3.56253V2.50008L18.7125 2.50003ZM11.9625 10C11.6807 10 11.4105 10.112 11.2112 10.3112C11.012 10.5105 10.9 10.7807 10.9 11.0625V20.0625V21.125H11.9625H13.025V20.0625V11.0625C13.025 10.7807 12.9131 10.5105 12.7138 10.3112C12.5146 10.112 12.2443 10 11.9625 10ZM5.21252 14.5C4.93073 14.5 4.66048 14.612 4.46122 14.8112C4.26197 15.0105 4.15002 15.2807 4.15002 15.5625V20.0625V21.125H5.21252C5.49432 21.125 6.27502 21.1093 6.27502 21.1093V20.0625V15.5625C6.27502 15.2807 6.16308 15.0105 5.96383 14.8112C5.76457 14.612 5.49432 14.5 5.21252 14.5ZM18.7125 17.5C18.4307 17.5 18.1605 17.612 17.9612 17.8112C17.762 18.0105 17.65 18.2807 17.65 18.5625V20.0625V21.1093C17.65 21.1093 18.4307 21.125 18.7125 21.125C18.9943 21.125 19.775 21.1093 19.775 21.1093V20.0625V18.5625C19.775 18.2807 19.6631 18.0105 19.4638 17.8112C19.2646 17.612 18.9943 17.5 18.7125 17.5Z" fill="white"/>
</svg>
