<svg width="24" height="24" viewBox="0 0 24 24" fill="none" xmlns="http://www.w3.org/2000/svg">
<path d="M9.17157 7.75731L7.75736 9.17153L10.5858 12L7.75736 14.8284L9.17157 16.2426L12 13.4142L14.8284 16.2426L16.2426 14.8284L13.4142 12L16.2426 9.17153L14.8284 7.75731L12 10.5857L9.17157 7.75731ZM4.92893 4.92889C1.0257 8.83212 1.0257 15.1678 4.92893 19.071C8.83216 22.9743 15.1678 22.9743 19.0711 19.071C22.9743 15.1678 22.9743 8.83212 19.0711 4.92889C15.1678 1.02566 8.83216 1.02566 4.92893 4.92889ZM17.6569 17.6568C14.5385 20.7752 9.46149 20.7752 6.34315 17.6568C3.22481 14.5385 3.22481 9.46144 6.34315 6.3431C9.46149 3.22476 14.5385 3.22476 17.6569 6.3431C20.7752 9.46144 20.7752 14.5385 17.6569 17.6568Z" fill="white"/>
</svg>
