<svg width="24" height="24" viewBox="0 0 24 24" fill="none" xmlns="http://www.w3.org/2000/svg">
<path fill-rule="evenodd" clip-rule="evenodd" d="M3.91168 4.12666C3.11316 4.52592 3 4.89247 3 5C3 5.10753 3.11316 5.47408 3.91168 5.87334C4.65038 6.24269 5.74087 6.5 7 6.5C8.25913 6.5 9.34962 6.24269 10.0883 5.87334C10.8868 5.47408 11 5.10753 11 5C11 4.89247 10.8868 4.52592 10.0883 4.12666C9.34962 3.75731 8.25913 3.5 7 3.5C5.74087 3.5 4.65038 3.75731 3.91168 4.12666ZM3.01725 2.33781C4.08819 1.80234 5.4977 1.5 7 1.5C8.50229 1.5 9.91181 1.80234 10.9827 2.33781C11.9939 2.84337 13 3.72682 13 5C13 6.27318 11.9939 7.15663 10.9827 7.66219C9.91181 8.19766 8.50229 8.5 7 8.5C5.4977 8.5 4.08819 8.19766 3.01725 7.66219C2.00613 7.15663 1 6.27318 1 5C1 3.72682 2.00613 2.84337 3.01725 2.33781Z" fill="white"/>
<path fill-rule="evenodd" clip-rule="evenodd" d="M2 4C2.55228 4 3 4.44772 3 5V8.5C3 8.60741 3.11313 8.97397 3.91168 9.37327C4.65038 9.74265 5.74086 10 7 10C8.25914 10 9.34962 9.74265 10.0883 9.37327C10.8869 8.97397 11 8.60741 11 8.5V5C11 4.44772 11.4477 4 12 4C12.5523 4 13 4.44772 13 5V8.5C13 9.77309 11.9939 10.6565 10.9828 11.1621C9.91187 11.6976 8.50236 12 7 12C5.49764 12 4.08812 11.6976 3.0172 11.1621C2.00612 10.6565 1 9.77309 1 8.5V5C1 4.44772 1.44772 4 2 4Z" fill="white"/>
<path fill-rule="evenodd" clip-rule="evenodd" d="M2 7.5C2.55228 7.5 3 7.94772 3 8.5V12C3 12.1074 3.11313 12.474 3.91168 12.8733C4.65038 13.2426 5.74086 13.5 7 13.5C8.25914 13.5 9.34962 13.2426 10.0883 12.8733C10.8869 12.474 11 12.1074 11 12V8.5C11 7.94772 11.4477 7.5 12 7.5C12.5523 7.5 13 7.94772 13 8.5V12C13 13.2731 11.9939 14.1565 10.9828 14.6621C9.91187 15.1976 8.50236 15.5 7 15.5C5.49764 15.5 4.08812 15.1976 3.0172 14.6621C2.00612 14.1565 1 13.2731 1 12V8.5C1 7.94772 1.44772 7.5 2 7.5Z" fill="white"/>
<path fill-rule="evenodd" clip-rule="evenodd" d="M2 11C2.55228 11 3 11.4477 3 12V15.5C3 15.6074 3.11313 15.974 3.91168 16.3733C4.65038 16.7426 5.74086 17 7 17C8.25914 17 9.34962 16.7426 10.0883 16.3733C10.8869 15.974 11 15.6074 11 15.5V12C11 11.4477 11.4477 11 12 11C12.5523 11 13 11.4477 13 12V15.5C13 16.7731 11.9939 17.6565 10.9828 18.1621C9.91187 18.6976 8.50236 19 7 19C5.49764 19 4.08812 18.6976 3.0172 18.1621C2.00612 17.6565 1 16.7731 1 15.5V12C1 11.4477 1.44772 11 2 11Z" fill="white"/>
<path fill-rule="evenodd" clip-rule="evenodd" d="M2 14.5C2.55228 14.5 3 14.9477 3 15.5V19C3 19.1074 3.11313 19.474 3.91168 19.8733C4.65038 20.2426 5.74086 20.5 7 20.5C8.25914 20.5 9.34962 20.2426 10.0883 19.8733C10.8869 19.474 11 19.1074 11 19V15.5C11 14.9477 11.4477 14.5 12 14.5C12.5523 14.5 13 14.9477 13 15.5V19C13 20.2731 11.9939 21.1565 10.9828 21.6621C9.91187 22.1976 8.50236 22.5 7 22.5C5.49764 22.5 4.08812 22.1976 3.0172 21.6621C2.00612 21.1565 1 20.2731 1 19V15.5C1 14.9477 1.44772 14.5 2 14.5Z" fill="white"/>
<path fill-rule="evenodd" clip-rule="evenodd" d="M13.9117 11.1267C13.1132 11.5259 13 11.8925 13 12C13 12.1075 13.1132 12.4741 13.9117 12.8733C14.6504 13.2427 15.7409 13.5 17 13.5C18.2591 13.5 19.3496 13.2427 20.0883 12.8733C20.8868 12.4741 21 12.1075 21 12C21 11.8925 20.8868 11.5259 20.0883 11.1267C19.3496 10.7573 18.2591 10.5 17 10.5C15.7409 10.5 14.6504 10.7573 13.9117 11.1267ZM13.0173 9.33781C14.0882 8.80234 15.4977 8.5 17 8.5C18.5023 8.5 19.9118 8.80234 20.9827 9.33781C21.9939 9.84337 23 10.7268 23 12C23 13.2732 21.9939 14.1566 20.9827 14.6622C19.9118 15.1977 18.5023 15.5 17 15.5C15.4977 15.5 14.0882 15.1977 13.0173 14.6622C12.0061 14.1566 11 13.2732 11 12C11 10.7268 12.0061 9.84337 13.0173 9.33781Z" fill="white"/>
<path fill-rule="evenodd" clip-rule="evenodd" d="M12 11C12.5523 11 13 11.4477 13 12V15.5C13 15.6074 13.1131 15.974 13.9117 16.3733C14.6504 16.7426 15.7409 17 17 17C18.2591 17 19.3496 16.7426 20.0883 16.3733C20.8869 15.974 21 15.6074 21 15.5V12C21 11.4477 21.4477 11 22 11C22.5523 11 23 11.4477 23 12V15.5C23 16.7731 21.9939 17.6565 20.9828 18.1621C19.9119 18.6976 18.5024 19 17 19C15.4976 19 14.0881 18.6976 13.0172 18.1621C12.0061 17.6565 11 16.7731 11 15.5V12C11 11.4477 11.4477 11 12 11Z" fill="white"/>
<path fill-rule="evenodd" clip-rule="evenodd" d="M12 14.5C12.5523 14.5 13 14.9477 13 15.5V19C13 19.1074 13.1131 19.474 13.9117 19.8733C14.6504 20.2426 15.7409 20.5 17 20.5C18.2591 20.5 19.3496 20.2426 20.0883 19.8733C20.8869 19.474 21 19.1074 21 19V15.5C21 14.9477 21.4477 14.5 22 14.5C22.5523 14.5 23 14.9477 23 15.5V19C23 20.2731 21.9939 21.1565 20.9828 21.6621C19.9119 22.1976 18.5024 22.5 17 22.5C15.4976 22.5 14.0881 22.1976 13.0172 21.6621C12.0061 21.1565 11 20.2731 11 19V15.5C11 14.9477 11.4477 14.5 12 14.5Z" fill="white"/>
</svg>
