<svg width="24" height="24" viewBox="0 0 24 24" fill="none" xmlns="http://www.w3.org/2000/svg">
<path d="M10.758 11.828L18.607 3.979L20.021 5.393L18.607 6.807L21.081 9.282L19.667 10.697L17.192 8.222L15.778 9.636L17.899 11.757L16.485 13.171L14.364 11.051L12.172 13.242C12.8514 14.276 13.1235 15.5252 12.9357 16.7481C12.7479 17.9711 12.1135 19.081 11.155 19.8635C10.1966 20.646 8.98218 21.0455 7.74639 20.9848C6.5106 20.9241 5.34115 20.4076 4.46397 19.535C3.58622 18.6591 3.06528 17.4882 3.00231 16.2497C2.93933 15.0113 3.33881 13.7936 4.12318 12.8332C4.90755 11.8727 6.02085 11.238 7.24691 11.0522C8.47297 10.8665 9.72431 11.143 10.758 11.828ZM10.121 18.121C10.4123 17.8455 10.6454 17.5143 10.8066 17.1471C10.9677 16.7799 11.0536 16.3842 11.0592 15.9832C11.0647 15.5823 10.9899 15.1843 10.839 14.8128C10.6881 14.4412 10.4643 14.1037 10.1808 13.8202C9.89724 13.5367 9.55974 13.3128 9.18821 13.162C8.81669 13.0111 8.41869 12.9362 8.01775 12.9418C7.6168 12.9474 7.22104 13.0333 6.85385 13.1944C6.48667 13.3556 6.15552 13.5887 5.87997 13.88C5.3335 14.4458 5.03112 15.2036 5.03795 15.9902C5.04479 16.7768 5.36029 17.5292 5.91652 18.0855C6.47274 18.6417 7.22518 18.9572 8.01177 18.964C8.79836 18.9709 9.55617 18.6685 10.122 18.122L10.121 18.121Z" fill="white"/>
</svg>
