<svg width="24" height="24" viewBox="0 0 24 24" fill="none" xmlns="http://www.w3.org/2000/svg">
<path d="M17.6257 10.3114C17.6257 11.9249 17.1019 13.4153 16.2194 14.6245L20.6704 19.0781C21.1099 19.5175 21.1099 20.2311 20.6704 20.6705C20.2309 21.1098 19.5172 21.1098 19.0777 20.6705L14.6267 16.2168C13.4173 17.1026 11.9266 17.6229 10.3129 17.6229C6.27321 17.6229 3 14.3503 3 10.3114C3 6.27257 6.27321 3 10.3129 3C14.3525 3 17.6257 6.27257 17.6257 10.3114ZM10.3129 15.3732C10.9777 15.3732 11.636 15.2423 12.2503 14.9879C12.8645 14.7335 13.4226 14.3607 13.8928 13.8906C14.3629 13.4206 14.7358 12.8626 14.9902 12.2485C15.2447 11.6344 15.3756 10.9761 15.3756 10.3114C15.3756 9.64671 15.2447 8.9885 14.9902 8.37438C14.7358 7.76026 14.3629 7.20225 13.8928 6.73223C13.4226 6.2622 12.8645 5.88935 12.2503 5.63497C11.636 5.3806 10.9777 5.24967 10.3129 5.24967C9.64801 5.24967 8.98967 5.3806 8.37543 5.63497C7.76119 5.88935 7.20307 6.2622 6.73295 6.73223C6.26283 7.20225 5.88992 7.76026 5.63549 8.37438C5.38106 8.9885 5.25011 9.64671 5.25011 10.3114C5.25011 10.9761 5.38106 11.6344 5.63549 12.2485C5.88992 12.8626 6.26283 13.4206 6.73295 13.8906C7.20307 14.3607 7.76119 14.7335 8.37543 14.9879C8.98967 15.2423 9.64801 15.3732 10.3129 15.3732Z" fill="white"/>
</svg>
