<svg width="24" height="24" viewBox="0 0 24 24" fill="none" xmlns="http://www.w3.org/2000/svg">
<path d="M13.196 2.26801L16.446 7.89801C16.5783 8.1276 16.614 8.4003 16.5454 8.65624C16.4768 8.91217 16.3094 9.1304 16.08 9.26301L14.78 10.013L15.781 11.745L14.049 12.745L13.049 11.012L11.75 11.763C11.5203 11.8956 11.2474 11.9315 10.9912 11.8629C10.735 11.7943 10.5166 11.6267 10.384 11.397L8.546 8.21501C7.89033 8.41432 7.28261 8.74623 6.76054 9.19015C6.23847 9.63407 5.81319 10.1805 5.51107 10.7956C5.20896 11.4107 5.03646 12.0814 5.00428 12.7659C4.9721 13.4504 5.08092 14.1343 5.324 14.775C6.12401 14.2671 7.0524 13.9983 8 14C9.684 14 11.174 14.833 12.08 16.109L19.768 11.67L20.768 13.402L12.89 17.951C13.0341 18.6261 13.0375 19.3236 12.9 20H21V22L4 22.001C3.34925 21.136 2.99819 20.0825 3 19C3 17.993 3.298 17.055 3.81 16.27C3.34643 15.3919 3.07491 14.4252 3.01345 13.4342C2.95199 12.4431 3.10199 11.4503 3.4535 10.5216C3.80502 9.59293 4.35001 8.74963 5.05231 8.04766C5.75461 7.34569 6.59816 6.80109 7.527 6.45001L7.134 5.76801C6.86879 5.30865 6.79693 4.76276 6.9342 4.25041C7.07148 3.73807 7.40665 3.30124 7.866 3.03601L10.464 1.53601C10.9234 1.27081 11.4693 1.19894 11.9816 1.33621C12.4939 1.47349 12.9308 1.80867 13.196 2.26801ZM8 16C7.51992 15.9998 7.0468 16.1147 6.62037 16.3352C6.19394 16.5558 5.82666 16.8754 5.54939 17.2673C5.27212 17.6592 5.09294 18.112 5.02693 18.5875C4.96091 19.063 5.00997 19.5474 5.17 20H10.83C10.99 19.5474 11.0391 19.063 10.9731 18.5875C10.9071 18.112 10.7279 17.6592 10.4506 17.2673C10.1733 16.8754 9.80606 16.5558 9.37963 16.3352C8.9532 16.1147 8.48007 15.9998 8 16ZM11.464 3.26801L8.866 4.76801L11.616 9.53101L14.214 8.03101L11.464 3.26801Z" fill="white"/>
</svg>
