<svg width="24" height="24" viewBox="0 0 24 24" fill="none" xmlns="http://www.w3.org/2000/svg">
<path fill-rule="evenodd" clip-rule="evenodd" d="M8.80007 10.4033C7.97472 10.816 7.75 11.2472 7.75 11.5C7.75 11.7528 7.97472 12.184 8.80007 12.5967C9.58041 12.9869 10.7108 13.25 12 13.25C13.2892 13.25 14.4196 12.9869 15.1999 12.5967C16.0253 12.184 16.25 11.7528 16.25 11.5C16.25 11.2472 16.0253 10.816 15.1999 10.4033C14.4196 10.0131 13.2892 9.75 12 9.75C10.7108 9.75 9.58041 10.0131 8.80007 10.4033ZM8.12918 9.0617C9.15859 8.54692 10.5282 8.25 12 8.25C13.4718 8.25 14.8414 8.54692 15.8708 9.0617C16.8552 9.55397 17.75 10.3728 17.75 11.5C17.75 12.6272 16.8552 13.446 15.8708 13.9383C14.8414 14.4531 13.4718 14.75 12 14.75C10.5282 14.75 9.15859 14.4531 8.12918 13.9383C7.14478 13.446 6.25 12.6272 6.25 11.5C6.25 10.3728 7.14478 9.55397 8.12918 9.0617ZM7 14.75C7.41421 14.75 7.75 15.0858 7.75 15.5C7.75 15.7528 7.97472 16.184 8.80007 16.5967C9.58041 16.9869 10.7108 17.25 12 17.25C13.2892 17.25 14.4196 16.9869 15.1999 16.5967C16.0253 16.184 16.25 15.7528 16.25 15.5C16.25 15.0858 16.5858 14.75 17 14.75C17.4142 14.75 17.75 15.0858 17.75 15.5C17.75 16.6272 16.8552 17.446 15.8708 17.9383C14.8414 18.4531 13.4718 18.75 12 18.75C10.5282 18.75 9.15859 18.4531 8.12918 17.9383C7.14478 17.446 6.25 16.6272 6.25 15.5C6.25 15.0858 6.58579 14.75 7 14.75Z" fill="white"/>
<path fill-rule="evenodd" clip-rule="evenodd" d="M7 10.75C7.41421 10.75 7.75 11.0858 7.75 11.5V19.5C7.75 19.7528 7.97472 20.184 8.80007 20.5967C9.58041 20.9869 10.7108 21.25 12 21.25C13.2892 21.25 14.4196 20.9869 15.1999 20.5967C16.0253 20.184 16.25 19.7528 16.25 19.5V11.5C16.25 11.0858 16.5858 10.75 17 10.75C17.4142 10.75 17.75 11.0858 17.75 11.5V19.5C17.75 20.6272 16.8552 21.446 15.8708 21.9383C14.8414 22.4531 13.4718 22.75 12 22.75C10.5282 22.75 9.15859 22.4531 8.12918 21.9383C7.14478 21.446 6.25 20.6272 6.25 19.5V11.5C6.25 11.0858 6.58579 10.75 7 10.75Z" fill="white"/>
<path fill-rule="evenodd" clip-rule="evenodd" d="M7.11462 6.76247C7.11487 6.76206 7.11513 6.76163 6.26187 6.24015C5.4086 5.71868 5.40888 5.71822 5.40917 5.71776L5.40978 5.71676L5.41115 5.71452L5.41451 5.7091L5.42366 5.69457C5.43083 5.68327 5.44016 5.66879 5.45163 5.65141C5.47457 5.61668 5.5062 5.57021 5.54641 5.51431C5.62664 5.40277 5.7422 5.25213 5.89246 5.08143C6.19013 4.74328 6.63974 4.30845 7.23817 3.94808C7.84103 3.58504 8.60597 3.29152 9.51451 3.26305C10.4278 3.23442 11.4214 3.47582 12.4716 4.08552C13.9249 4.92928 14.9419 4.70039 15.5941 4.35821C15.9477 4.17274 16.2254 3.93473 16.4159 3.73906C16.5099 3.64248 16.5791 3.55991 16.6222 3.50531C16.6437 3.47814 16.6583 3.45829 16.6661 3.44758L16.6724 3.43873C16.6725 3.43849 16.6722 3.4389 16.6715 3.43997L16.6701 3.44209L16.6691 3.44353L16.6686 3.44435C16.6683 3.44479 16.668 3.44524 17.5 3.99994C18.3321 4.55464 18.3317 4.55511 18.3314 4.55559L18.3307 4.55662L18.3292 4.55888L18.3256 4.56424L18.316 4.57824C18.3085 4.58899 18.299 4.60256 18.2873 4.61869C18.264 4.65092 18.2323 4.69352 18.1922 4.74438C18.1121 4.84584 17.9974 4.98164 17.8488 5.13428C17.554 5.43708 17.111 5.82097 16.5232 6.12931C15.2929 6.77475 13.5445 7.02106 11.4674 5.81516C10.7021 5.37086 10.0745 5.24648 9.57716 5.26206C9.07512 5.2778 8.64009 5.43849 8.26992 5.6614C7.89532 5.88699 7.59885 6.16986 7.39368 6.40293C7.29252 6.51784 7.21749 6.61618 7.16997 6.68223C7.14631 6.71512 7.12977 6.73959 7.12052 6.7536L7.11222 6.76637C7.11192 6.76684 7.11182 6.767 7.11193 6.76682C7.11199 6.76673 7.1121 6.76656 7.11226 6.76629L7.11334 6.76455L7.11415 6.76324L7.11462 6.76247Z" fill="white"/>
<path fill-rule="evenodd" clip-rule="evenodd" d="M18 2L6 2L6 0L18 1.04907e-06L18 2Z" fill="white"/>
</svg>
