<svg width="24" height="24" viewBox="0 0 24 24" fill="none" xmlns="http://www.w3.org/2000/svg">
<path d="M24 5.5V20.5H1.5V17.5H0V4H21V5.5H24ZM18 5.5C18 5.71094 18.0391 5.90625 18.1172 6.08594C18.1953 6.26562 18.3008 6.42188 18.4336 6.55469C18.5664 6.6875 18.7266 6.79688 18.9141 6.88281C19.1016 6.96875 19.2969 7.00781 19.5 7V5.5H18ZM1.5 7C1.71094 7 1.90625 6.96094 2.08594 6.88281C2.26562 6.80469 2.42188 6.69922 2.55469 6.56641C2.6875 6.43359 2.79688 6.27344 2.88281 6.08594C2.96875 5.89844 3.00781 5.70312 3 5.5H1.5V7ZM1.5 13C1.91406 13 2.30078 13.0781 2.66016 13.2344C3.01953 13.3906 3.33984 13.6055 3.62109 13.8789C3.90234 14.1523 4.11719 14.4688 4.26562 14.8281C4.41406 15.1875 4.49219 15.5781 4.5 16H16.5C16.5 15.5859 16.5781 15.1992 16.7344 14.8398C16.8906 14.4805 17.1055 14.1602 17.3789 13.8789C17.6523 13.5977 17.9688 13.3828 18.3281 13.2344C18.6875 13.0859 19.0781 13.0078 19.5 13V8.5C19.0859 8.5 18.6992 8.42188 18.3398 8.26562C17.9805 8.10938 17.6602 7.89453 17.3789 7.62109C17.0977 7.34766 16.8828 7.03125 16.7344 6.67188C16.5859 6.3125 16.5078 5.92188 16.5 5.5H4.5C4.5 5.91406 4.42188 6.30078 4.26562 6.66016C4.10938 7.01953 3.89453 7.33984 3.62109 7.62109C3.34766 7.90234 3.03125 8.11719 2.67188 8.26562C2.3125 8.41406 1.92188 8.49219 1.5 8.5V13ZM19.5 14.5C19.2891 14.5 19.0938 14.5391 18.9141 14.6172C18.7344 14.6953 18.5781 14.8008 18.4453 14.9336C18.3125 15.0664 18.2031 15.2266 18.1172 15.4141C18.0312 15.6016 17.9922 15.7969 18 16H19.5V14.5ZM1.5 16H3C3 15.7891 2.96094 15.5938 2.88281 15.4141C2.80469 15.2344 2.69922 15.0781 2.56641 14.9453C2.43359 14.8125 2.27344 14.7031 2.08594 14.6172C1.89844 14.5312 1.70312 14.4922 1.5 14.5V16ZM22.5 7H21V17.5H3V19H22.5V7ZM5.25 11.5C5.04688 11.5 4.87109 11.4258 4.72266 11.2773C4.57422 11.1289 4.5 10.9531 4.5 10.75C4.5 10.5469 4.57422 10.3711 4.72266 10.2227C4.87109 10.0742 5.04688 10 5.25 10C5.45312 10 5.62891 10.0742 5.77734 10.2227C5.92578 10.3711 6 10.5469 6 10.75C6 10.9531 5.92578 11.1289 5.77734 11.2773C5.62891 11.4258 5.45312 11.5 5.25 11.5ZM15.75 11.5C15.5469 11.5 15.3711 11.4258 15.2227 11.2773C15.0742 11.1289 15 10.9531 15 10.75C15 10.5469 15.0742 10.3711 15.2227 10.2227C15.3711 10.0742 15.5469 10 15.75 10C15.9531 10 16.1289 10.0742 16.2773 10.2227C16.4258 10.3711 16.5 10.5469 16.5 10.75C16.5 10.9531 16.4258 11.1289 16.2773 11.2773C16.1289 11.4258 15.9531 11.5 15.75 11.5ZM10.5 14.5C10.0859 14.5 9.69922 14.4219 9.33984 14.2656C8.98047 14.1094 8.66016 13.8945 8.37891 13.6211C8.09766 13.3477 7.88281 13.0312 7.73438 12.6719C7.58594 12.3125 7.50781 11.9219 7.5 11.5V10C7.5 9.58594 7.57812 9.19922 7.73438 8.83984C7.89062 8.48047 8.10547 8.16016 8.37891 7.87891C8.65234 7.59766 8.96875 7.38281 9.32812 7.23438C9.6875 7.08594 10.0781 7.00781 10.5 7C10.9141 7 11.3008 7.07812 11.6602 7.23438C12.0195 7.39062 12.3398 7.60547 12.6211 7.87891C12.9023 8.15234 13.1172 8.46875 13.2656 8.82812C13.4141 9.1875 13.4922 9.57812 13.5 10V11.5C13.5 11.9141 13.4219 12.3008 13.2656 12.6602C13.1094 13.0195 12.8945 13.3398 12.6211 13.6211C12.3477 13.9023 12.0312 14.1172 11.6719 14.2656C11.3125 14.4141 10.9219 14.4922 10.5 14.5ZM9 11.5C9 11.7109 9.03906 11.9062 9.11719 12.0859C9.19531 12.2656 9.30078 12.4219 9.43359 12.5547C9.56641 12.6875 9.72656 12.7969 9.91406 12.8828C10.1016 12.9688 10.2969 13.0078 10.5 13C10.7109 13 10.9062 12.9609 11.0859 12.8828C11.2656 12.8047 11.4219 12.6992 11.5547 12.5664C11.6875 12.4336 11.7969 12.2734 11.8828 12.0859C11.9688 11.8984 12.0078 11.7031 12 11.5V10C12 9.78906 11.9609 9.59375 11.8828 9.41406C11.8047 9.23438 11.6992 9.07812 11.5664 8.94531C11.4336 8.8125 11.2734 8.70312 11.0859 8.61719C10.8984 8.53125 10.7031 8.49219 10.5 8.5C10.2891 8.5 10.0938 8.53906 9.91406 8.61719C9.73438 8.69531 9.57812 8.80078 9.44531 8.93359C9.3125 9.06641 9.20312 9.22656 9.11719 9.41406C9.03125 9.60156 8.99219 9.79688 9 10V11.5Z" fill="white"/>
</svg>
