<svg width="24" height="24" viewBox="0 0 24 24" fill="none" xmlns="http://www.w3.org/2000/svg">
<path d="M10.875 6.74996C10.875 7.04833 10.7565 7.33448 10.5455 7.54545C10.3345 7.75643 10.0484 7.87496 9.75 7.87496H3.75C3.45163 7.87496 3.16548 7.75643 2.9545 7.54545C2.74353 7.33448 2.625 7.04833 2.625 6.74996C2.625 6.45159 2.74353 6.16544 2.9545 5.95446C3.16548 5.74349 3.45163 5.62496 3.75 5.62496H9.75C10.0484 5.62496 10.3345 5.74349 10.5455 5.95446C10.7565 6.16544 10.875 6.45159 10.875 6.74996ZM9.75 16.125H7.875V14.25C7.875 13.9516 7.75647 13.6654 7.5455 13.4545C7.33452 13.2435 7.04837 13.125 6.75 13.125C6.45163 13.125 6.16548 13.2435 5.9545 13.4545C5.74353 13.6654 5.625 13.9516 5.625 14.25V16.125H3.75C3.45163 16.125 3.16548 16.2435 2.9545 16.4545C2.74353 16.6654 2.625 16.9516 2.625 17.25C2.625 17.5483 2.74353 17.8345 2.9545 18.0455C3.16548 18.2564 3.45163 18.375 3.75 18.375H5.625V20.25C5.625 20.5483 5.74353 20.8345 5.9545 21.0455C6.16548 21.2564 6.45163 21.375 6.75 21.375C7.04837 21.375 7.33452 21.2564 7.5455 21.0455C7.75647 20.8345 7.875 20.5483 7.875 20.25V18.375H9.75C10.0484 18.375 10.3345 18.2564 10.5455 18.0455C10.7565 17.8345 10.875 17.5483 10.875 17.25C10.875 16.9516 10.7565 16.6654 10.5455 16.4545C10.3345 16.2435 10.0484 16.125 9.75 16.125ZM14.25 16.5H20.25C20.5484 16.5 20.8345 16.3814 21.0455 16.1705C21.2565 15.9595 21.375 15.6733 21.375 15.375C21.375 15.0766 21.2565 14.7904 21.0455 14.5795C20.8345 14.3685 20.5484 14.25 20.25 14.25H14.25C13.9516 14.25 13.6655 14.3685 13.4545 14.5795C13.2435 14.7904 13.125 15.0766 13.125 15.375C13.125 15.6733 13.2435 15.9595 13.4545 16.1705C13.6655 16.3814 13.9516 16.5 14.25 16.5ZM20.25 18H14.25C13.9516 18 13.6655 18.1185 13.4545 18.3295C13.2435 18.5404 13.125 18.8266 13.125 19.125C13.125 19.4233 13.2435 19.7095 13.4545 19.9205C13.6655 20.1314 13.9516 20.25 14.25 20.25H20.25C20.5484 20.25 20.8345 20.1314 21.0455 19.9205C21.2565 19.7095 21.375 19.4233 21.375 19.125C21.375 18.8266 21.2565 18.5404 21.0455 18.3295C20.8345 18.1185 20.5484 18 20.25 18ZM14.2041 9.7959C14.3086 9.90078 14.4328 9.98399 14.5695 10.0408C14.7063 10.0976 14.8529 10.1268 15.0009 10.1268C15.149 10.1268 15.2956 10.0976 15.4324 10.0408C15.5691 9.98399 15.6933 9.90078 15.7978 9.7959L17.25 8.34371L18.7041 9.79871C18.9154 10.0101 19.2021 10.1288 19.5009 10.1288C19.7998 10.1288 20.0865 10.0101 20.2978 9.79871C20.5092 9.58736 20.6279 9.30072 20.6279 9.00183C20.6279 8.70295 20.5092 8.4163 20.2978 8.20496L18.8438 6.74996L20.2987 5.2959C20.5101 5.08455 20.6288 4.79791 20.6288 4.49902C20.6288 4.20014 20.5101 3.91349 20.2987 3.70215C20.0874 3.4908 19.8008 3.37207 19.5019 3.37207C19.203 3.37207 18.9163 3.4908 18.705 3.70215L17.25 5.15621L15.7959 3.70402C15.5846 3.49268 15.2979 3.37395 14.9991 3.37395C14.7002 3.37395 14.4135 3.49268 14.2022 3.70402C13.9908 3.91537 13.8721 4.20201 13.8721 4.5009C13.8721 4.79978 13.9908 5.08643 14.2022 5.29777L15.6562 6.74996L14.2041 8.20402C14.0995 8.3085 14.0165 8.43258 13.9599 8.56915C13.9033 8.70572 13.8741 8.85212 13.8741 8.99996C13.8741 9.1478 13.9033 9.29419 13.9599 9.43077C14.0165 9.56734 14.0995 9.69141 14.2041 9.7959Z" fill="white"/>
</svg>
