<svg width="24" height="24" viewBox="0 0 24 24" fill="none" xmlns="http://www.w3.org/2000/svg">
<path d="M10 1V11L13 9L16 11V1M5.5 18C4.83696 18 4.20107 18.2634 3.73223 18.7322C3.26339 19.2011 3 19.837 3 20.5M3 20.5C3 21.163 3.26339 21.7989 3.73223 22.2678C4.20107 22.7366 4.83696 23 5.5 23H22M3 20.5V3.5C3 2.83696 3.26339 2.20107 3.73223 1.73223C4.20107 1.26339 4.83696 1 5.5 1H21V18.007H5.492M20.5 18C19.837 18 19.2011 18.2634 18.7322 18.7322C18.2634 19.2011 18 19.837 18 20.5C18 21.163 18.2634 21.7989 18.7322 22.2678C19.2011 22.7366 19.837 23 20.5 23" stroke="white" stroke-width="2"/>
</svg>
