<svg width="24" height="24" viewBox="0 0 24 24" fill="none" xmlns="http://www.w3.org/2000/svg">
<path d="M17.6087 6.46846C16.6486 4.87692 15.3345 4 13.9091 4H10.0909C8.66545 4 7.35136 4.87692 6.39125 6.46846C5.49398 7.95538 5 9.92308 5 12C5 14.0769 5.49398 16.0446 6.39125 17.5315C7.35136 19.1231 8.66545 20 10.0909 20H13.9091C15.3345 20 16.6486 19.1231 17.6087 17.5315C18.506 16.0446 19 14.0769 19 12C19 9.92308 18.506 7.95538 17.6087 6.46846ZM17.7106 11.3846H15.1651C15.1154 10.1218 14.8554 8.87504 14.3951 7.69231H16.8284C17.3152 8.72154 17.6366 10 17.7106 11.3846ZM16.0719 6.46154H13.7866C13.5208 6.01563 13.2003 5.60238 12.832 5.23077H13.9091C14.7045 5.23077 15.4523 5.69231 16.0719 6.46154ZM6.27273 12C6.27273 8.33077 8.02273 5.23077 10.0909 5.23077C12.1591 5.23077 13.9091 8.33077 13.9091 12C13.9091 15.6692 12.1591 18.7692 10.0909 18.7692C8.02273 18.7692 6.27273 15.6692 6.27273 12ZM13.9091 18.7692H12.8344C13.2027 18.3976 13.5232 17.9844 13.789 17.5385H16.0743C15.4523 18.3077 14.7045 18.7692 13.9091 18.7692ZM16.8284 16.3077H14.3959C14.8562 15.125 15.1162 13.8782 15.1659 12.6154H17.7114C17.6366 14 17.3152 15.2785 16.8284 16.3077Z" fill="white"/>
</svg>
