<svg width="24" height="24" viewBox="0 0 24 24" fill="none" xmlns="http://www.w3.org/2000/svg">
<path d="M13 3C16.88 3 20 6.14 20 10C20 12.8 18.37 15.19 16 16.31V21H8.99998V18H7.99998C6.88998 18 5.99998 17.11 5.99998 16V13H4.49998C4.07998 13 3.83998 12.5 4.07998 12.19L5.99998 9.66C6.08809 7.86329 6.86421 6.16939 8.16745 4.92945C9.4707 3.6895 11.2011 2.99861 13 3ZM13 1C8.40998 1 4.60998 4.42 4.05998 8.9L2.49998 11H2.46998L2.44998 11.03C1.89998 11.79 1.82998 12.79 2.25998 13.62C2.61998 14.31 3.25998 14.79 3.99998 14.94V16C3.99998 17.85 5.27998 19.42 6.99998 19.87V23H18V17.5C20.5 15.83 22 13.06 22 10C22 5.03 17.96 1 13 1ZM17.33 9.3L15.37 9.81L16.81 11.27C17.16 11.61 17.16 12.19 16.81 12.54C16.46 12.89 15.88 12.89 15.54 12.54L14.09 11.1L13.57 13.06C13.45 13.55 12.96 13.82 12.5 13.7C12.3835 13.6708 12.274 13.6189 12.1777 13.5472C12.0815 13.4756 12.0003 13.3855 11.939 13.2824C11.8776 13.1792 11.8373 13.0649 11.8203 12.9461C11.8033 12.8272 11.81 12.7062 11.84 12.59L12.37 10.63L10.41 11.16C10.2937 11.19 10.1727 11.1967 10.0539 11.1797C9.93508 11.1627 9.82079 11.1224 9.71762 11.061C9.61444 10.9997 9.52443 10.9185 9.45275 10.8222C9.38107 10.7259 9.32915 10.6164 9.29998 10.5C9.17998 10.05 9.45998 9.55 9.93998 9.43L11.9 8.91L10.46 7.46C10.3095 7.28817 10.23 7.06558 10.2376 6.83732C10.2452 6.60907 10.3392 6.39222 10.5007 6.23073C10.6622 6.06925 10.879 5.97519 11.1073 5.96762C11.3356 5.96006 11.5582 6.03956 11.73 6.19L13.19 7.63L13.7 5.67C13.82 5.18 14.32 4.9 14.79 5.03C15.28 5.16 15.56 5.65 15.43 6.13L14.9 8.1L16.87 7.57C17.35 7.44 17.84 7.72 17.97 8.21C18.1 8.68 17.82 9.18 17.33 9.3Z" fill="white"/>
</svg>
