<svg width="24" height="24" viewBox="0 0 24 24" fill="none" xmlns="http://www.w3.org/2000/svg">
<path fill-rule="evenodd" clip-rule="evenodd" d="M8.80007 10.4033C7.97472 10.816 7.75 11.2472 7.75 11.5C7.75 11.7528 7.97472 12.184 8.80007 12.5967C9.58041 12.9869 10.7108 13.25 12 13.25C13.2892 13.25 14.4196 12.9869 15.1999 12.5967C16.0253 12.184 16.25 11.7528 16.25 11.5C16.25 11.2472 16.0253 10.816 15.1999 10.4033C14.4196 10.0131 13.2892 9.75 12 9.75C10.7108 9.75 9.58041 10.0131 8.80007 10.4033ZM8.12918 9.0617C9.15859 8.54692 10.5282 8.25 12 8.25C13.4718 8.25 14.8414 8.54692 15.8708 9.0617C16.8552 9.55397 17.75 10.3728 17.75 11.5C17.75 12.6272 16.8552 13.446 15.8708 13.9383C14.8414 14.4531 13.4718 14.75 12 14.75C10.5282 14.75 9.15859 14.4531 8.12918 13.9383C7.14478 13.446 6.25 12.6272 6.25 11.5C6.25 10.3728 7.14478 9.55397 8.12918 9.0617ZM7 14.75C7.41421 14.75 7.75 15.0858 7.75 15.5C7.75 15.7528 7.97472 16.184 8.80007 16.5967C9.58041 16.9869 10.7108 17.25 12 17.25C13.2892 17.25 14.4196 16.9869 15.1999 16.5967C16.0253 16.184 16.25 15.7528 16.25 15.5C16.25 15.0858 16.5858 14.75 17 14.75C17.4142 14.75 17.75 15.0858 17.75 15.5C17.75 16.6272 16.8552 17.446 15.8708 17.9383C14.8414 18.4531 13.4718 18.75 12 18.75C10.5282 18.75 9.15859 18.4531 8.12918 17.9383C7.14478 17.446 6.25 16.6272 6.25 15.5C6.25 15.0858 6.58579 14.75 7 14.75Z" fill="white"/>
<path fill-rule="evenodd" clip-rule="evenodd" d="M7 10.75C7.41421 10.75 7.75 11.0858 7.75 11.5V19.5C7.75 19.7528 7.97472 20.184 8.80007 20.5967C9.58041 20.9869 10.7108 21.25 12 21.25C13.2892 21.25 14.4196 20.9869 15.1999 20.5967C16.0253 20.184 16.25 19.7528 16.25 19.5V11.5C16.25 11.0858 16.5858 10.75 17 10.75C17.4142 10.75 17.75 11.0858 17.75 11.5V19.5C17.75 20.6272 16.8552 21.446 15.8708 21.9383C14.8414 22.4531 13.4718 22.75 12 22.75C10.5282 22.75 9.15859 22.4531 8.12918 21.9383C7.14478 21.446 6.25 20.6272 6.25 19.5V11.5C6.25 11.0858 6.58579 10.75 7 10.75Z" fill="white"/>
<path fill-rule="evenodd" clip-rule="evenodd" d="M18 5L6 5L6 3L18 3L18 5Z" fill="white"/>
</svg>
