<svg width="24" height="24" viewBox="0 0 24 24" fill="none" xmlns="http://www.w3.org/2000/svg">
<path d="M15.35 5.54999C14.5901 5.54986 13.8606 5.84797 13.3182 6.3802C12.7759 6.91243 12.4641 7.63626 12.45 8.39599L12.422 9.97099C12.4205 10.0556 12.4011 10.139 12.3651 10.2156C12.329 10.2923 12.2772 10.3604 12.213 10.4155C12.1488 10.4707 12.0736 10.5116 11.9924 10.5357C11.9112 10.5597 11.8259 10.5663 11.742 10.555L10.18 10.342C8.12698 10.062 6.15898 9.11699 4.26998 7.54399C3.67298 10.854 4.83998 13.147 7.65298 14.916L9.39998 16.014C9.48285 16.0661 9.5517 16.1377 9.60054 16.2226C9.64937 16.3074 9.67671 16.4029 9.68016 16.5007C9.68361 16.5986 9.66307 16.6957 9.62034 16.7838C9.5776 16.8719 9.51397 16.9482 9.43498 17.006L7.84298 18.17C8.78998 18.23 9.68898 18.188 10.435 18.04C15.153 17.098 18.29 13.548 18.29 7.69199C18.29 7.21399 17.277 5.54999 15.35 5.54999ZM10.45 8.35999C10.4674 7.39604 10.7689 6.45866 11.3165 5.66521C11.8642 4.87177 12.6338 4.25751 13.5289 3.89936C14.424 3.54121 15.4049 3.45507 16.3487 3.65174C17.2926 3.84841 18.1574 4.31914 18.835 5.00499C19.546 4.99999 20.151 5.17999 21.503 4.35899C21.169 5.99899 21.003 6.71199 20.29 7.69099C20.29 15.332 15.593 19.049 10.826 20C7.55898 20.652 2.80598 19.581 1.44598 18.158C2.13898 18.105 4.95898 17.802 6.58898 16.608C5.20898 15.698 -0.279016 12.468 3.32798 3.78599C5.02098 5.76299 6.73798 7.10799 8.47798 7.82299C9.63498 8.29799 9.91998 8.28799 10.451 8.36099L10.45 8.35999Z" fill="white"/>
</svg>
