<svg width="24" height="24" viewBox="0 0 24 24" fill="none" xmlns="http://www.w3.org/2000/svg">
<path fill-rule="evenodd" clip-rule="evenodd" d="M2.9519 3.7019C3.5614 3.09241 4.38805 2.75 5.25 2.75H18.75C19.612 2.75 20.4386 3.09241 21.0481 3.7019C21.6576 4.3114 22 5.13805 22 6V18C22 18.862 21.6576 19.6886 21.0481 20.2981C20.4386 20.9076 19.612 21.25 18.75 21.25H5.25C4.38805 21.25 3.5614 20.9076 2.9519 20.2981C2.34241 19.6886 2 18.862 2 18V6C2 5.13805 2.34241 4.3114 2.9519 3.7019ZM4 12V18C4 18.3315 4.1317 18.6495 4.36612 18.8839C4.60054 19.1183 4.91848 19.25 5.25 19.25H18.75C19.0815 19.25 19.3995 19.1183 19.6339 18.8839C19.8683 18.6495 20 18.3315 20 18V12C20 11.6685 19.8683 11.3505 19.6339 11.1161C19.3995 10.8817 19.0815 10.75 18.75 10.75H15.873C15.6958 11.436 15.338 12.0689 14.8284 12.5784C14.0783 13.3286 13.0609 13.75 12 13.75C10.9391 13.75 9.92172 13.3286 9.17157 12.5784C8.66203 12.0689 8.30416 11.436 8.12701 10.75H5.25C4.91848 10.75 4.60054 10.8817 4.36612 11.1161C4.1317 11.3505 4 11.6685 4 12ZM20 9C19.6077 8.83652 19.1833 8.75 18.75 8.75H15C14.4477 8.75 14 9.19772 14 9.75C14 10.2804 13.7893 10.7891 13.4142 11.1642C13.0391 11.5393 12.5304 11.75 12 11.75C11.4696 11.75 10.9609 11.5393 10.5858 11.1642C10.2107 10.7891 10 10.2804 10 9.75C10 9.19772 9.55228 8.75 9 8.75H5.25C4.81671 8.75 4.39235 8.83652 4 9C4 8.66848 4.1317 8.35054 4.36612 8.11612C4.60054 7.8817 4.91848 7.75 5.25 7.75H18.75C19.0815 7.75 19.3995 7.8817 19.6339 8.11612C19.8683 8.35054 20 8.66848 20 9ZM20 6C19.6077 5.83652 19.1833 5.75 18.75 5.75H5.25C4.81671 5.75 4.39235 5.83652 4 6C4 5.66848 4.1317 5.35054 4.36612 5.11612C4.60054 4.8817 4.91848 4.75 5.25 4.75H18.75C19.0815 4.75 19.3995 4.8817 19.6339 5.11612C19.8683 5.35054 20 5.66848 20 6Z" fill="white"/>
</svg>
